solid completo_g27_small_potentiometer
facet normal 8.459899447642992e-16 1.0 5.6999322519585096e-15
  outer loop
    vertex 10.999999999998826 48.50003491108641 87.92893218813542
    vertex 20.99999999999953 48.500034911086665 40.92893218813537
    vertex 10.999999999999568 48.500034911086665 40.928932188135214
  endloop
endfacet
facet normal 8.459899447642992e-16 1.0 5.6999322519585096e-15
  outer loop
    vertex 20.99999999999953 48.500034911086665 40.92893218813537
    vertex 10.999999999998826 48.50003491108641 87.92893218813542
    vertex 20.999999999998803 48.50003491108639 87.9289321881355
  endloop
endfacet
facet normal -1.5593132845543263e-14 -3.703037876334742e-15 1.0
  outer loop
    vertex 10.999999999998826 48.50003491108641 87.92893218813542
    vertex 20.999999999998813 28.500034911086427 87.92893218813539
    vertex 20.999999999998803 48.50003491108639 87.9289321881355
  endloop
endfacet
facet normal -1.5593132845543263e-14 -3.703037876334742e-15 1.0
  outer loop
    vertex 20.999999999998813 28.500034911086427 87.92893218813539
    vertex 10.999999999998826 48.50003491108641 87.92893218813542
    vertex 10.999999999998833 28.50003491108639 87.92893218813528
  endloop
endfacet
facet normal 1.6919798895288435e-15 -1.0 -5.759931538821193e-15
  outer loop
    vertex 20.999999999998813 28.500034911086427 87.92893218813539
    vertex 10.999999999999577 28.500034911086694 40.92893218813515
    vertex 20.99999999999953 28.500034911086694 40.92893218813529
  endloop
endfacet
facet normal 1.6919798895288435e-15 -1.0 -5.759931538821193e-15
  outer loop
    vertex 10.999999999999577 28.500034911086694 40.92893218813515
    vertex 20.999999999998813 28.500034911086427 87.92893218813539
    vertex 10.999999999998833 28.50003491108639 87.92893218813528
  endloop
endfacet
facet normal -1.0 -4.0731087704742724e-16 -1.5806461589344367e-14
  outer loop
    vertex 10.999999999999613 45.50003491108668 37.9289321881352
    vertex 10.9999999999995 40.91484947680929 44.28188457537893
    vertex 10.99999999999949 41.00003491108662 44.92893218813523
  endloop
endfacet
facet normal -1.0 -4.0731087704742724e-16 -1.5806461589344367e-14
  outer loop
    vertex 10.9999999999995 40.91484947680929 44.28188457537893
    vertex 10.999999999999613 45.50003491108668 37.9289321881352
    vertex 10.999999999999512 40.66509842054772 43.67893218813522
  endloop
endfacet
facet normal -1.0 -4.0731087704742724e-16 -1.5806461589344367e-14
  outer loop
    vertex 10.999999999999512 40.66509842054772 43.67893218813522
    vertex 10.999999999999613 45.50003491108668 37.9289321881352
    vertex 10.999999999999515 40.267801864053006 43.16116523516886
  endloop
endfacet
facet normal -1.0 -4.0731087704742724e-16 -1.5806461589344367e-14
  outer loop
    vertex 10.999999999999515 40.267801864053006 43.16116523516886
    vertex 10.999999999999613 45.50003491108668 37.9289321881352
    vertex 10.999999999999522 39.75003491108663 42.763868678674136
  endloop
endfacet
facet normal -1.0 -4.0731087704742724e-16 -1.5806461589344367e-14
  outer loop
    vertex 10.999999999999522 39.75003491108663 42.763868678674136
    vertex 10.999999999999613 45.50003491108668 37.9289321881352
    vertex 10.99999999999962 31.500034911086715 37.92893218813514
  endloop
endfacet
facet normal -1.0 -4.0731087704742724e-16 -1.5806461589344367e-14
  outer loop
    vertex 10.999999999999522 39.75003491108663 42.763868678674136
    vertex 10.99999999999962 31.500034911086715 37.92893218813514
    vertex 10.999999999999526 39.14708252384293 42.514117622412556
  endloop
endfacet
facet normal -1.0 -4.0731087704742724e-16 -1.5806461589344367e-14
  outer loop
    vertex 10.999999999999526 39.14708252384293 42.514117622412556
    vertex 10.99999999999962 31.500034911086715 37.92893218813514
    vertex 10.99999999999953 38.50003491108664 42.428932188135214
  endloop
endfacet
facet normal -1.0 -4.0731087704742724e-16 -1.5806461589344367e-14
  outer loop
    vertex 10.99999999999953 38.50003491108664 42.428932188135214
    vertex 10.99999999999962 31.500034911086715 37.92893218813514
    vertex 10.99999999999953 37.85298729833033 42.51411762241254
  endloop
endfacet
facet normal -1.0 -4.0731087704742724e-16 -1.5806461589344367e-14
  outer loop
    vertex 10.99999999999953 37.85298729833033 42.51411762241254
    vertex 10.99999999999962 31.500034911086715 37.92893218813514
    vertex 10.999999999999522 37.25003491108663 42.76386867867412
  endloop
endfacet
facet normal -1.0 -4.0731087704742724e-16 -1.5806461589344367e-14
  outer loop
    vertex 10.999999999999522 37.25003491108663 42.76386867867412
    vertex 10.99999999999962 31.500034911086715 37.92893218813514
    vertex 10.999999999999515 36.732267958120275 43.161165235168845
  endloop
endfacet
facet normal -1.0 -4.0731087704742724e-16 -1.5806461589344367e-14
  outer loop
    vertex 10.999999999999515 36.732267958120275 43.161165235168845
    vertex 10.99999999999962 31.500034911086715 37.92893218813514
    vertex 10.999999999999512 36.33497140162553 43.67893218813521
  endloop
endfacet
facet normal -1.0 -4.0731087704742724e-16 -1.5806461589344367e-14
  outer loop
    vertex 10.999999999999512 36.33497140162553 43.67893218813521
    vertex 10.99999999999962 31.500034911086715 37.92893218813514
    vertex 10.9999999999995 36.08522034536395 44.2818845753789
  endloop
endfacet
facet normal -1.0 -4.0731087704742724e-16 -1.5806461589344367e-14
  outer loop
    vertex 10.9999999999995 36.08522034536395 44.2818845753789
    vertex 10.99999999999962 31.500034911086715 37.92893218813514
    vertex 10.99999999999949 36.00003491108662 44.92893218813521
  endloop
endfacet
facet normal -1.0 -4.0731087704742724e-16 -1.5806461589344367e-14
  outer loop
    vertex 10.99999999999949 36.00003491108662 44.92893218813521
    vertex 10.99999999999962 31.500034911086715 37.92893218813514
    vertex 10.999999999998982 36.00003491108645 77.92893218813532
  endloop
endfacet
facet normal -1.0 -4.0731087704742724e-16 -1.5806461589344367e-14
  outer loop
    vertex 10.999999999999584 48.39781238995387 40.152475052827654
    vertex 10.999999999998826 48.50003491108641 87.92893218813542
    vertex 10.999999999999568 48.500034911086665 40.928932188135214
  endloop
endfacet
facet normal -1.0 -4.0731087704742724e-16 -1.5806461589344367e-14
  outer loop
    vertex 10.999999999998826 48.50003491108641 87.92893218813542
    vertex 10.999999999999584 48.39781238995387 40.152475052827654
    vertex 10.99999999999897 40.914849476809124 78.57597980089166
  endloop
endfacet
facet normal -1.0 -4.0731087704742724e-16 -1.5806461589344367e-14
  outer loop
    vertex 10.999999999998826 48.50003491108641 87.92893218813542
    vertex 10.99999999999897 40.914849476809124 78.57597980089166
    vertex 10.999999999998959 40.665098420547544 79.17893218813535
  endloop
endfacet
facet normal -1.0 -4.0731087704742724e-16 -1.5806461589344367e-14
  outer loop
    vertex 10.999999999998826 48.50003491108641 87.92893218813542
    vertex 10.999999999998959 40.665098420547544 79.17893218813535
    vertex 10.999999999998948 40.26780186405281 79.69669914110172
  endloop
endfacet
facet normal -1.0 -4.0731087704742724e-16 -1.5806461589344367e-14
  outer loop
    vertex 10.999999999998826 48.50003491108641 87.92893218813542
    vertex 10.999999999998948 40.26780186405281 79.69669914110172
    vertex 10.999999999998941 39.75003491108643 80.09399569759645
  endloop
endfacet
facet normal -1.0 -4.0731087704742724e-16 -1.5806461589344367e-14
  outer loop
    vertex 10.999999999998826 48.50003491108641 87.92893218813542
    vertex 10.999999999998941 39.75003491108643 80.09399569759645
    vertex 10.999999999998833 28.50003491108639 87.92893218813528
  endloop
endfacet
facet normal -1.0 -4.0731087704742724e-16 -1.5806461589344367e-14
  outer loop
    vertex 10.99999999999897 40.914849476809124 78.57597980089166
    vertex 10.999999999999584 48.39781238995387 40.152475052827654
    vertex 10.999999999999591 48.09811112243999 39.428932188135214
  endloop
endfacet
facet normal -1.0 -4.0731087704742724e-16 -1.5806461589344367e-14
  outer loop
    vertex 10.99999999999897 40.914849476809124 78.57597980089166
    vertex 10.999999999999591 48.09811112243999 39.428932188135214
    vertex 10.999999999999606 47.62135525464632 38.80761184457557
  endloop
endfacet
facet normal -1.0 -4.0731087704742724e-16 -1.5806461589344367e-14
  outer loop
    vertex 10.99999999999897 40.914849476809124 78.57597980089166
    vertex 10.999999999999606 47.62135525464632 38.80761184457557
    vertex 10.999999999999613 47.00003491108667 38.330855976781905
  endloop
endfacet
facet normal -1.0 -4.0731087704742724e-16 -1.5806461589344367e-14
  outer loop
    vertex 10.99999999999897 40.914849476809124 78.57597980089166
    vertex 10.999999999999613 47.00003491108667 38.330855976781905
    vertex 10.999999999999616 46.27649204639424 38.031154709268
  endloop
endfacet
facet normal -1.0 -4.0731087704742724e-16 -1.5806461589344367e-14
  outer loop
    vertex 10.99999999999897 40.914849476809124 78.57597980089166
    vertex 10.999999999999616 46.27649204639424 38.031154709268
    vertex 10.999999999998982 41.00003491108645 77.92893218813536
  endloop
endfacet
facet normal -1.0 -4.0731087704742724e-16 -1.5806461589344367e-14
  outer loop
    vertex 10.999999999998982 41.00003491108645 77.92893218813536
    vertex 10.999999999999616 46.27649204639424 38.031154709268
    vertex 10.999999999999613 45.50003491108668 37.9289321881352
  endloop
endfacet
facet normal -1.0 -4.0731087704742724e-16 -1.5806461589344367e-14
  outer loop
    vertex 10.999999999998982 41.00003491108645 77.92893218813536
    vertex 10.999999999999613 45.50003491108668 37.9289321881352
    vertex 10.99999999999949 41.00003491108662 44.92893218813523
  endloop
endfacet
facet normal -1.0 -4.0731087704742724e-16 -1.5806461589344367e-14
  outer loop
    vertex 10.999999999998833 28.50003491108639 87.92893218813528
    vertex 10.999999999998941 39.75003491108643 80.09399569759645
    vertex 10.999999999998938 39.14708252384274 80.34374675385803
  endloop
endfacet
facet normal -1.0 -4.0731087704742724e-16 -1.5806461589344367e-14
  outer loop
    vertex 10.999999999998833 28.50003491108639 87.92893218813528
    vertex 10.999999999998938 39.14708252384274 80.34374675385803
    vertex 10.999999999998936 38.50003491108643 80.42893218813533
  endloop
endfacet
facet normal -1.0 -4.0731087704742724e-16 -1.5806461589344367e-14
  outer loop
    vertex 10.999999999998833 28.50003491108639 87.92893218813528
    vertex 10.999999999998936 38.50003491108643 80.42893218813533
    vertex 10.99999999999894 37.85298729833013 80.34374675385801
  endloop
endfacet
facet normal -1.0 -4.0731087704742724e-16 -1.5806461589344367e-14
  outer loop
    vertex 10.999999999998833 28.50003491108639 87.92893218813528
    vertex 10.99999999999894 37.85298729833013 80.34374675385801
    vertex 10.999999999998941 37.25003491108642 80.09399569759643
  endloop
endfacet
facet normal -1.0 -4.0731087704742724e-16 -1.5806461589344367e-14
  outer loop
    vertex 10.999999999998833 28.50003491108639 87.92893218813528
    vertex 10.999999999998941 37.25003491108642 80.09399569759643
    vertex 10.999999999998948 36.73226795812007 79.69669914110169
  endloop
endfacet
facet normal -1.0 -4.0731087704742724e-16 -1.5806461589344367e-14
  outer loop
    vertex 10.999999999998833 28.50003491108639 87.92893218813528
    vertex 10.999999999998948 36.73226795812007 79.69669914110169
    vertex 10.999999999998959 36.334971401625346 79.17893218813533
  endloop
endfacet
facet normal -1.0 -4.0731087704742724e-16 -1.5806461589344367e-14
  outer loop
    vertex 10.999999999998833 28.50003491108639 87.92893218813528
    vertex 10.999999999998959 36.334971401625346 79.17893218813533
    vertex 10.99999999999897 36.085220345363766 78.57597980089163
  endloop
endfacet
facet normal -1.0 -4.0731087704742724e-16 -1.5806461589344367e-14
  outer loop
    vertex 10.999999999998833 28.50003491108639 87.92893218813528
    vertex 10.99999999999897 36.085220345363766 78.57597980089163
    vertex 10.999999999998982 36.00003491108645 77.92893218813532
  endloop
endfacet
facet normal -1.0 -4.0731087704742724e-16 -1.5806461589344367e-14
  outer loop
    vertex 10.999999999998833 28.50003491108639 87.92893218813528
    vertex 10.999999999998982 36.00003491108645 77.92893218813532
    vertex 10.99999999999962 31.500034911086715 37.92893218813514
  endloop
endfacet
facet normal -1.0 -4.0731087704742724e-16 -1.5806461589344367e-14
  outer loop
    vertex 10.999999999998833 28.50003491108639 87.92893218813528
    vertex 10.99999999999962 31.500034911086715 37.92893218813514
    vertex 10.999999999999622 30.723577775779148 38.03115470926791
  endloop
endfacet
facet normal -1.0 -4.0731087704742724e-16 -1.5806461589344367e-14
  outer loop
    vertex 10.999999999998833 28.50003491108639 87.92893218813528
    vertex 10.999999999999622 30.723577775779148 38.03115470926791
    vertex 10.999999999999625 30.000034911086708 38.33085597678183
  endloop
endfacet
facet normal -1.0 -4.0731087704742724e-16 -1.5806461589344367e-14
  outer loop
    vertex 10.999999999998833 28.50003491108639 87.92893218813528
    vertex 10.999999999999625 30.000034911086708 38.33085597678183
    vertex 10.999999999999615 29.378714567527044 38.8076118445755
  endloop
endfacet
facet normal -1.0 -4.0731087704742724e-16 -1.5806461589344367e-14
  outer loop
    vertex 10.999999999998833 28.50003491108639 87.92893218813528
    vertex 10.999999999999615 29.378714567527044 38.8076118445755
    vertex 10.999999999999599 28.90195869973339 39.428932188135136
  endloop
endfacet
facet normal -1.0 -4.0731087704742724e-16 -1.5806461589344367e-14
  outer loop
    vertex 10.999999999998833 28.50003491108639 87.92893218813528
    vertex 10.999999999999599 28.90195869973339 39.428932188135136
    vertex 10.999999999999591 28.60225743221949 40.152475052827576
  endloop
endfacet
facet normal -1.0 -4.0731087704742724e-16 -1.5806461589344367e-14
  outer loop
    vertex 10.999999999998833 28.50003491108639 87.92893218813528
    vertex 10.999999999999591 28.60225743221949 40.152475052827576
    vertex 10.999999999999577 28.500034911086694 40.92893218813515
  endloop
endfacet
facet normal 1.5227819005758707e-14 3.6256711918473065e-15 -1.0
  outer loop
    vertex 20.999999999999574 31.500034911086715 37.9289321881353
    vertex 10.999999999999613 45.50003491108668 37.9289321881352
    vertex 20.999999999999577 45.50003491108668 37.92893218813534
  endloop
endfacet
facet normal 1.5227819005758707e-14 3.6256711918473065e-15 -1.0
  outer loop
    vertex 10.999999999999613 45.50003491108668 37.9289321881352
    vertex 20.999999999999574 31.500034911086715 37.9289321881353
    vertex 10.99999999999962 31.500034911086715 37.92893218813514
  endloop
endfacet
facet normal 1.0 1.5060101995214946e-16 1.539047302236958e-14
  outer loop
    vertex 20.999999999998803 48.50003491108639 87.9289321881355
    vertex 20.99999999999954 48.39781238995387 40.15247505282777
    vertex 20.99999999999953 48.500034911086665 40.92893218813537
  endloop
endfacet
facet normal 1.0 1.5060101995214946e-16 1.539047302236958e-14
  outer loop
    vertex 20.99999999999954 48.39781238995387 40.15247505282777
    vertex 20.999999999998803 48.50003491108639 87.9289321881355
    vertex 20.999999999998973 40.914849476809124 78.57597980089184
  endloop
endfacet
facet normal 1.0 1.5060101995214946e-16 1.539047302236958e-14
  outer loop
    vertex 20.999999999998973 40.914849476809124 78.57597980089184
    vertex 20.999999999998803 48.50003491108639 87.9289321881355
    vertex 20.99999999999896 40.665098420547544 79.17893218813553
  endloop
endfacet
facet normal 1.0 1.5060101995214946e-16 1.539047302236958e-14
  outer loop
    vertex 20.99999999999896 40.665098420547544 79.17893218813553
    vertex 20.999999999998803 48.50003491108639 87.9289321881355
    vertex 20.999999999998952 40.26780186405281 79.69669914110187
  endloop
endfacet
facet normal 1.0 1.5060101995214946e-16 1.539047302236958e-14
  outer loop
    vertex 20.999999999998952 40.26780186405281 79.69669914110187
    vertex 20.999999999998803 48.50003491108639 87.9289321881355
    vertex 20.999999999998945 39.75003491108643 80.09399569759661
  endloop
endfacet
facet normal 1.0 1.5060101995214946e-16 1.539047302236958e-14
  outer loop
    vertex 20.999999999998945 39.75003491108643 80.09399569759661
    vertex 20.999999999998803 48.50003491108639 87.9289321881355
    vertex 20.999999999998813 28.500034911086427 87.92893218813539
  endloop
endfacet
facet normal 1.0 1.5060101995214946e-16 1.539047302236958e-14
  outer loop
    vertex 20.99999999999954 48.39781238995387 40.15247505282777
    vertex 20.999999999998973 40.914849476809124 78.57597980089184
    vertex 20.999999999999552 48.09811112243999 39.42893218813536
  endloop
endfacet
facet normal 1.0 1.5060101995214946e-16 1.539047302236958e-14
  outer loop
    vertex 20.999999999999552 48.09811112243999 39.42893218813536
    vertex 20.999999999998973 40.914849476809124 78.57597980089184
    vertex 20.99999999999956 47.62135525464632 38.80761184457571
  endloop
endfacet
facet normal 1.0 1.5060101995214946e-16 1.539047302236958e-14
  outer loop
    vertex 20.99999999999956 47.62135525464632 38.80761184457571
    vertex 20.999999999998973 40.914849476809124 78.57597980089184
    vertex 20.99999999999957 47.00003491108667 38.33085597678204
  endloop
endfacet
facet normal 1.0 1.5060101995214946e-16 1.539047302236958e-14
  outer loop
    vertex 20.99999999999957 47.00003491108667 38.33085597678204
    vertex 20.999999999998973 40.914849476809124 78.57597980089184
    vertex 20.999999999999584 46.27649204639424 38.03115470926816
  endloop
endfacet
facet normal 1.0 1.5060101995214946e-16 1.539047302236958e-14
  outer loop
    vertex 20.999999999999584 46.27649204639424 38.03115470926816
    vertex 20.999999999998973 40.914849476809124 78.57597980089184
    vertex 20.999999999998973 41.00003491108645 77.92893218813552
  endloop
endfacet
facet normal 1.0 1.5060101995214946e-16 1.539047302236958e-14
  outer loop
    vertex 20.999999999999584 46.27649204639424 38.03115470926816
    vertex 20.999999999998973 41.00003491108645 77.92893218813552
    vertex 20.999999999999577 45.50003491108668 37.92893218813534
  endloop
endfacet
facet normal 1.0 1.5060101995214946e-16 1.539047302236958e-14
  outer loop
    vertex 20.999999999999577 45.50003491108668 37.92893218813534
    vertex 20.999999999998973 41.00003491108645 77.92893218813552
    vertex 20.99999999999949 41.00003491108662 44.928932188135384
  endloop
endfacet
facet normal 1.0 1.5060101995214946e-16 1.539047302236958e-14
  outer loop
    vertex 20.999999999998945 39.75003491108643 80.09399569759661
    vertex 20.999999999998813 28.500034911086427 87.92893218813539
    vertex 20.99999999999894 39.14708252384274 80.34374675385817
  endloop
endfacet
facet normal 1.0 1.5060101995214946e-16 1.539047302236958e-14
  outer loop
    vertex 20.99999999999894 39.14708252384274 80.34374675385817
    vertex 20.999999999998813 28.500034911086427 87.92893218813539
    vertex 20.999999999998934 38.50003491108643 80.42893218813549
  endloop
endfacet
facet normal 1.0 1.5060101995214946e-16 1.539047302236958e-14
  outer loop
    vertex 20.999999999998934 38.50003491108643 80.42893218813549
    vertex 20.999999999998813 28.500034911086427 87.92893218813539
    vertex 20.999999999998938 37.85298729833013 80.34374675385817
  endloop
endfacet
facet normal 1.0 1.5060101995214946e-16 1.539047302236958e-14
  outer loop
    vertex 20.999999999998938 37.85298729833013 80.34374675385817
    vertex 20.999999999998813 28.500034911086427 87.92893218813539
    vertex 20.99999999999894 37.25003491108642 80.09399569759658
  endloop
endfacet
facet normal 1.0 1.5060101995214946e-16 1.539047302236958e-14
  outer loop
    vertex 20.99999999999894 37.25003491108642 80.09399569759658
    vertex 20.999999999998813 28.500034911086427 87.92893218813539
    vertex 20.999999999998945 36.73226795812007 79.69669914110185
  endloop
endfacet
facet normal 1.0 1.5060101995214946e-16 1.539047302236958e-14
  outer loop
    vertex 20.999999999998945 36.73226795812007 79.69669914110185
    vertex 20.999999999998813 28.500034911086427 87.92893218813539
    vertex 20.99999999999896 36.334971401625346 79.17893218813549
  endloop
endfacet
facet normal 1.0 1.5060101995214946e-16 1.539047302236958e-14
  outer loop
    vertex 20.99999999999896 36.334971401625346 79.17893218813549
    vertex 20.999999999998813 28.500034911086427 87.92893218813539
    vertex 20.999999999998973 36.085220345363766 78.57597980089177
  endloop
endfacet
facet normal 1.0 1.5060101995214946e-16 1.539047302236958e-14
  outer loop
    vertex 20.999999999998973 36.085220345363766 78.57597980089177
    vertex 20.999999999998813 28.500034911086427 87.92893218813539
    vertex 20.999999999998973 36.00003491108645 77.92893218813548
  endloop
endfacet
facet normal 1.0 1.5060101995214946e-16 1.539047302236958e-14
  outer loop
    vertex 20.999999999998973 36.00003491108645 77.92893218813548
    vertex 20.999999999998813 28.500034911086427 87.92893218813539
    vertex 20.999999999999574 31.500034911086715 37.9289321881353
  endloop
endfacet
facet normal 1.0 1.5060101995214946e-16 1.539047302236958e-14
  outer loop
    vertex 20.999999999999574 31.500034911086715 37.9289321881353
    vertex 20.999999999998813 28.500034911086427 87.92893218813539
    vertex 20.999999999999584 30.723577775779148 38.0311547092681
  endloop
endfacet
facet normal 1.0 1.5060101995214946e-16 1.539047302236958e-14
  outer loop
    vertex 20.999999999999584 30.723577775779148 38.0311547092681
    vertex 20.999999999998813 28.500034911086427 87.92893218813539
    vertex 20.99999999999957 30.000034911086708 38.33085597678199
  endloop
endfacet
facet normal 1.0 1.5060101995214946e-16 1.539047302236958e-14
  outer loop
    vertex 20.99999999999957 30.000034911086708 38.33085597678199
    vertex 20.999999999998813 28.500034911086427 87.92893218813539
    vertex 20.999999999999574 29.378714567527044 38.80761184457565
  endloop
endfacet
facet normal 1.0 1.5060101995214946e-16 1.539047302236958e-14
  outer loop
    vertex 20.999999999999574 29.378714567527044 38.80761184457565
    vertex 20.999999999998813 28.500034911086427 87.92893218813539
    vertex 20.999999999999556 28.90195869973339 39.4289321881353
  endloop
endfacet
facet normal 1.0 1.5060101995214946e-16 1.539047302236958e-14
  outer loop
    vertex 20.999999999999556 28.90195869973339 39.4289321881353
    vertex 20.999999999998813 28.500034911086427 87.92893218813539
    vertex 20.99999999999954 28.60225743221949 40.152475052827725
  endloop
endfacet
facet normal 1.0 1.5060101995214946e-16 1.539047302236958e-14
  outer loop
    vertex 20.99999999999954 28.60225743221949 40.152475052827725
    vertex 20.999999999998813 28.500034911086427 87.92893218813539
    vertex 20.99999999999953 28.500034911086694 40.92893218813529
  endloop
endfacet
facet normal 1.0 1.5060101995214946e-16 1.539047302236958e-14
  outer loop
    vertex 20.999999999999577 45.50003491108668 37.92893218813534
    vertex 20.999999999999527 39.75003491108663 42.76386867867428
    vertex 20.999999999999574 31.500034911086715 37.9289321881353
  endloop
endfacet
facet normal 1.0 1.5060101995214946e-16 1.539047302236958e-14
  outer loop
    vertex 20.999999999999527 39.75003491108663 42.76386867867428
    vertex 20.999999999999577 45.50003491108668 37.92893218813534
    vertex 20.99999999999952 40.267801864053006 43.161165235169015
  endloop
endfacet
facet normal 1.0 1.5060101995214946e-16 1.539047302236958e-14
  outer loop
    vertex 20.99999999999952 40.267801864053006 43.161165235169015
    vertex 20.999999999999577 45.50003491108668 37.92893218813534
    vertex 20.999999999999513 40.66509842054772 43.67893218813539
  endloop
endfacet
facet normal 1.0 1.5060101995214946e-16 1.539047302236958e-14
  outer loop
    vertex 20.999999999999513 40.66509842054772 43.67893218813539
    vertex 20.999999999999577 45.50003491108668 37.92893218813534
    vertex 20.9999999999995 40.91484947680929 44.28188457537909
  endloop
endfacet
facet normal 1.0 1.5060101995214946e-16 1.539047302236958e-14
  outer loop
    vertex 20.9999999999995 40.91484947680929 44.28188457537909
    vertex 20.999999999999577 45.50003491108668 37.92893218813534
    vertex 20.99999999999949 41.00003491108662 44.928932188135384
  endloop
endfacet
facet normal 1.0 1.5060101995214946e-16 1.539047302236958e-14
  outer loop
    vertex 20.999999999999574 31.500034911086715 37.9289321881353
    vertex 20.999999999999527 39.75003491108663 42.76386867867428
    vertex 20.999999999999535 39.14708252384293 42.514117622412705
  endloop
endfacet
facet normal 1.0 1.5060101995214946e-16 1.539047302236958e-14
  outer loop
    vertex 20.999999999999574 31.500034911086715 37.9289321881353
    vertex 20.999999999999535 39.14708252384293 42.514117622412705
    vertex 20.999999999999527 38.50003491108664 42.428932188135384
  endloop
endfacet
facet normal 1.0 1.5060101995214946e-16 1.539047302236958e-14
  outer loop
    vertex 20.999999999999574 31.500034911086715 37.9289321881353
    vertex 20.999999999999527 38.50003491108664 42.428932188135384
    vertex 20.999999999999527 37.85298729833033 42.51411762241268
  endloop
endfacet
facet normal 1.0 1.5060101995214946e-16 1.539047302236958e-14
  outer loop
    vertex 20.999999999999574 31.500034911086715 37.9289321881353
    vertex 20.999999999999527 37.85298729833033 42.51411762241268
    vertex 20.99999999999952 37.25003491108663 42.76386867867427
  endloop
endfacet
facet normal 1.0 1.5060101995214946e-16 1.539047302236958e-14
  outer loop
    vertex 20.999999999999574 31.500034911086715 37.9289321881353
    vertex 20.99999999999952 37.25003491108663 42.76386867867427
    vertex 20.999999999999517 36.732267958120275 43.161165235168994
  endloop
endfacet
facet normal 1.0 1.5060101995214946e-16 1.539047302236958e-14
  outer loop
    vertex 20.999999999999574 31.500034911086715 37.9289321881353
    vertex 20.999999999999517 36.732267958120275 43.161165235168994
    vertex 20.999999999999513 36.33497140162553 43.67893218813537
  endloop
endfacet
facet normal 1.0 1.5060101995214946e-16 1.539047302236958e-14
  outer loop
    vertex 20.999999999999574 31.500034911086715 37.9289321881353
    vertex 20.999999999999513 36.33497140162553 43.67893218813537
    vertex 20.9999999999995 36.08522034536395 44.28188457537907
  endloop
endfacet
facet normal 1.0 1.5060101995214946e-16 1.539047302236958e-14
  outer loop
    vertex 20.999999999999574 31.500034911086715 37.9289321881353
    vertex 20.9999999999995 36.08522034536395 44.28188457537907
    vertex 20.99999999999949 36.00003491108662 44.92893218813536
  endloop
endfacet
facet normal 1.0 1.5060101995214946e-16 1.539047302236958e-14
  outer loop
    vertex 20.999999999999574 31.500034911086715 37.9289321881353
    vertex 20.99999999999949 36.00003491108662 44.92893218813536
    vertex 20.999999999998973 36.00003491108645 77.92893218813548
  endloop
endfacet
facet normal 1.5656795798589885e-14 -0.13052619222005873 -0.9914448613738096
  outer loop
    vertex 10.999999999999622 30.723577775779148 38.03115470926791
    vertex 20.999999999999574 31.500034911086715 37.9289321881353
    vertex 20.999999999999584 30.723577775779148 38.0311547092681
  endloop
endfacet
facet normal 1.5656795798589885e-14 -0.13052619222005873 -0.9914448613738096
  outer loop
    vertex 20.999999999999574 31.500034911086715 37.9289321881353
    vertex 10.999999999999622 30.723577775779148 38.03115470926791
    vertex 10.99999999999962 31.500034911086715 37.92893218813514
  endloop
endfacet
facet normal 1.4026654272713719e-14 -0.38268343236508334 -0.9238795325112894
  outer loop
    vertex 20.99999999999957 30.000034911086708 38.33085597678199
    vertex 10.999999999999622 30.723577775779148 38.03115470926791
    vertex 20.999999999999584 30.723577775779148 38.0311547092681
  endloop
endfacet
facet normal 1.4026654272713719e-14 -0.38268343236508334 -0.9238795325112894
  outer loop
    vertex 10.999999999999622 30.723577775779148 38.03115470926791
    vertex 20.99999999999957 30.000034911086708 38.33085597678199
    vertex 10.999999999999625 30.000034911086708 38.33085597678183
  endloop
endfacet
facet normal 1.2011902098529097e-14 -0.6087614290087172 -0.7933533402912378
  outer loop
    vertex 10.999999999999615 29.378714567527044 38.8076118445755
    vertex 20.99999999999957 30.000034911086708 38.33085597678199
    vertex 20.999999999999574 29.378714567527044 38.80761184457565
  endloop
endfacet
facet normal 1.2011902098529097e-14 -0.6087614290087172 -0.7933533402912378
  outer loop
    vertex 20.99999999999957 30.000034911086708 38.33085597678199
    vertex 10.999999999999615 29.378714567527044 38.8076118445755
    vertex 10.999999999999625 30.000034911086708 38.33085597678183
  endloop
endfacet
facet normal 9.178558646936516e-15 -0.7933533402912326 -0.6087614290087243
  outer loop
    vertex 20.999999999999574 29.378714567527044 38.80761184457565
    vertex 10.999999999999599 28.90195869973339 39.428932188135136
    vertex 10.999999999999615 29.378714567527044 38.8076118445755
  endloop
endfacet
facet normal 9.178558646936516e-15 -0.7933533402912326 -0.6087614290087243
  outer loop
    vertex 10.999999999999599 28.90195869973339 39.428932188135136
    vertex 20.999999999999574 29.378714567527044 38.80761184457565
    vertex 20.999999999999556 28.90195869973339 39.4289321881353
  endloop
endfacet
facet normal 5.71971159184052e-15 -0.9238795325112859 -0.38268343236509206
  outer loop
    vertex 20.999999999999556 28.90195869973339 39.4289321881353
    vertex 10.999999999999591 28.60225743221949 40.152475052827576
    vertex 10.999999999999599 28.90195869973339 39.428932188135136
  endloop
endfacet
facet normal 5.71971159184052e-15 -0.9238795325112859 -0.38268343236509206
  outer loop
    vertex 10.999999999999591 28.60225743221949 40.152475052827576
    vertex 20.999999999999556 28.90195869973339 39.4289321881353
    vertex 20.99999999999954 28.60225743221949 40.152475052827725
  endloop
endfacet
facet normal 2.0606200919733836e-15 -0.9914448613738096 -0.13052619222005782
  outer loop
    vertex 20.99999999999953 28.500034911086694 40.92893218813529
    vertex 10.999999999999591 28.60225743221949 40.152475052827576
    vertex 20.99999999999954 28.60225743221949 40.152475052827725
  endloop
endfacet
facet normal 2.0606200919733836e-15 -0.9914448613738096 -0.13052619222005782
  outer loop
    vertex 10.999999999999591 28.60225743221949 40.152475052827576
    vertex 20.99999999999953 28.500034911086694 40.92893218813529
    vertex 10.999999999999577 28.500034911086694 40.92893218813515
  endloop
endfacet
facet normal 1.91344293391011e-15 0.9914448613738103 -0.13052619222005257
  outer loop
    vertex 10.999999999999584 48.39781238995387 40.152475052827654
    vertex 20.99999999999953 48.500034911086665 40.92893218813537
    vertex 20.99999999999954 48.39781238995387 40.15247505282777
  endloop
endfacet
facet normal 1.91344293391011e-15 0.9914448613738103 -0.13052619222005257
  outer loop
    vertex 20.99999999999953 48.500034911086665 40.92893218813537
    vertex 10.999999999999584 48.39781238995387 40.152475052827654
    vertex 10.999999999999568 48.500034911086665 40.928932188135214
  endloop
endfacet
facet normal 5.5618713408279296e-15 0.9238795325112904 -0.38268343236508073
  outer loop
    vertex 10.999999999999584 48.39781238995387 40.152475052827654
    vertex 20.999999999999552 48.09811112243999 39.42893218813536
    vertex 10.999999999999591 48.09811112243999 39.428932188135214
  endloop
endfacet
facet normal 5.5618713408279296e-15 0.9238795325112904 -0.38268343236508073
  outer loop
    vertex 20.999999999999552 48.09811112243999 39.42893218813536
    vertex 10.999999999999584 48.39781238995387 40.152475052827654
    vertex 20.99999999999954 48.39781238995387 40.15247505282777
  endloop
endfacet
facet normal 9.009175193491037e-15 0.7933533402912378 -0.6087614290087172
  outer loop
    vertex 10.999999999999591 48.09811112243999 39.428932188135214
    vertex 20.99999999999956 47.62135525464632 38.80761184457571
    vertex 10.999999999999606 47.62135525464632 38.80761184457557
  endloop
endfacet
facet normal 9.009175193491037e-15 0.7933533402912378 -0.6087614290087172
  outer loop
    vertex 20.99999999999956 47.62135525464632 38.80761184457571
    vertex 10.999999999999591 48.09811112243999 39.428932188135214
    vertex 20.999999999999552 48.09811112243999 39.42893218813536
  endloop
endfacet
facet normal 1.1842518645083611e-14 0.6087614290087243 -0.7933533402912326
  outer loop
    vertex 10.999999999999613 47.00003491108667 38.330855976781905
    vertex 20.99999999999956 47.62135525464632 38.80761184457571
    vertex 20.99999999999957 47.00003491108667 38.33085597678204
  endloop
endfacet
facet normal 1.1842518645083611e-14 0.6087614290087243 -0.7933533402912326
  outer loop
    vertex 20.99999999999956 47.62135525464632 38.80761184457571
    vertex 10.999999999999613 47.00003491108667 38.330855976781905
    vertex 10.999999999999606 47.62135525464632 38.80761184457557
  endloop
endfacet
facet normal 1.3868814021701132e-14 0.3826834323650957 -0.9238795325112844
  outer loop
    vertex 10.999999999999616 46.27649204639424 38.031154709268
    vertex 20.99999999999957 47.00003491108667 38.33085597678204
    vertex 20.999999999999584 46.27649204639424 38.03115470926816
  endloop
endfacet
facet normal 1.3868814021701132e-14 0.3826834323650957 -0.9238795325112844
  outer loop
    vertex 20.99999999999957 47.00003491108667 38.33085597678204
    vertex 10.999999999999616 46.27649204639424 38.031154709268
    vertex 10.999999999999613 47.00003491108667 38.330855976781905
  endloop
endfacet
facet normal 1.4538527545086172e-14 0.1305261922200588 -0.9914448613738096
  outer loop
    vertex 20.999999999999577 45.50003491108668 37.92893218813534
    vertex 10.999999999999616 46.27649204639424 38.031154709268
    vertex 20.999999999999584 46.27649204639424 38.03115470926816
  endloop
endfacet
facet normal 1.4538527545086172e-14 0.1305261922200588 -0.9914448613738096
  outer loop
    vertex 10.999999999999616 46.27649204639424 38.031154709268
    vertex 20.999999999999577 45.50003491108668 37.92893218813534
    vertex 10.999999999999613 45.50003491108668 37.9289321881352
  endloop
endfacet
facet normal 1.9183429447504035e-29 1.0 5.1272117864507046e-15
  outer loop
    vertex 10.999999999998982 36.00003491108645 77.92893218813532
    vertex 20.99999999999949 36.00003491108662 44.92893218813536
    vertex 10.99999999999949 36.00003491108662 44.92893218813521
  endloop
endfacet
facet normal 1.9183429447504035e-29 1.0 5.1272117864507046e-15
  outer loop
    vertex 20.99999999999949 36.00003491108662 44.92893218813536
    vertex 10.999999999998982 36.00003491108645 77.92893218813532
    vertex 20.999999999998973 36.00003491108645 77.92893218813548
  endloop
endfacet
facet normal 2.0261776271396836e-15 0.991444861373812 -0.1305261922200391
  outer loop
    vertex 10.99999999999897 36.085220345363766 78.57597980089163
    vertex 20.999999999998973 36.00003491108645 77.92893218813548
    vertex 10.999999999998982 36.00003491108645 77.92893218813532
  endloop
endfacet
facet normal 2.0261776271396836e-15 0.991444861373812 -0.1305261922200391
  outer loop
    vertex 20.999999999998973 36.00003491108645 77.92893218813548
    vertex 10.99999999999897 36.085220345363766 78.57597980089163
    vertex 20.999999999998973 36.085220345363766 78.57597980089177
  endloop
endfacet
facet normal 5.9404522245466126e-15 0.9238795325112891 -0.3826834323650841
  outer loop
    vertex 10.99999999999897 36.085220345363766 78.57597980089163
    vertex 20.99999999999896 36.334971401625346 79.17893218813549
    vertex 20.999999999998973 36.085220345363766 78.57597980089177
  endloop
endfacet
facet normal 5.9404522245466126e-15 0.9238795325112891 -0.3826834323650841
  outer loop
    vertex 20.99999999999896 36.334971401625346 79.17893218813549
    vertex 10.99999999999897 36.085220345363766 78.57597980089163
    vertex 10.999999999998959 36.334971401625346 79.17893218813533
  endloop
endfacet
facet normal 9.4498948199121e-15 0.793353340291237 -0.6087614290087184
  outer loop
    vertex 10.999999999998948 36.73226795812007 79.69669914110169
    vertex 20.99999999999896 36.334971401625346 79.17893218813549
    vertex 10.999999999998959 36.334971401625346 79.17893218813533
  endloop
endfacet
facet normal 9.4498948199121e-15 0.793353340291237 -0.6087614290087184
  outer loop
    vertex 20.99999999999896 36.334971401625346 79.17893218813549
    vertex 10.999999999998948 36.73226795812007 79.69669914110169
    vertex 20.999999999998945 36.73226795812007 79.69669914110185
  endloop
endfacet
facet normal 1.231534269999002e-14 0.6087614290087292 -0.7933533402912287
  outer loop
    vertex 10.999999999998948 36.73226795812007 79.69669914110169
    vertex 20.99999999999894 37.25003491108642 80.09399569759658
    vertex 20.999999999998945 36.73226795812007 79.69669914110185
  endloop
endfacet
facet normal 1.231534269999002e-14 0.6087614290087292 -0.7933533402912287
  outer loop
    vertex 20.99999999999894 37.25003491108642 80.09399569759658
    vertex 10.999999999998948 36.73226795812007 79.69669914110169
    vertex 10.999999999998941 37.25003491108642 80.09399569759643
  endloop
endfacet
facet normal 1.4341520327129838e-14 0.3826834323650976 -0.9238795325112836
  outer loop
    vertex 10.999999999998941 37.25003491108642 80.09399569759643
    vertex 20.999999999998938 37.85298729833013 80.34374675385817
    vertex 20.99999999999894 37.25003491108642 80.09399569759658
  endloop
endfacet
facet normal 1.4341520327129838e-14 0.3826834323650976 -0.9238795325112836
  outer loop
    vertex 20.999999999998938 37.85298729833013 80.34374675385817
    vertex 10.999999999998941 37.25003491108642 80.09399569759643
    vertex 10.99999999999894 37.85298729833013 80.34374675385801
  endloop
endfacet
facet normal 1.5390347044458666e-14 0.13052619222005613 -0.9914448613738099
  outer loop
    vertex 10.99999999999894 37.85298729833013 80.34374675385801
    vertex 20.999999999998934 38.50003491108643 80.42893218813549
    vertex 20.999999999998938 37.85298729833013 80.34374675385817
  endloop
endfacet
facet normal 1.5390347044458666e-14 0.13052619222005613 -0.9914448613738099
  outer loop
    vertex 20.999999999998934 38.50003491108643 80.42893218813549
    vertex 10.99999999999894 37.85298729833013 80.34374675385801
    vertex 10.999999999998936 38.50003491108643 80.42893218813533
  endloop
endfacet
facet normal 1.5390347044458675e-14 -0.130526192220038 -0.9914448613738122
  outer loop
    vertex 20.999999999998934 38.50003491108643 80.42893218813549
    vertex 10.999999999998938 39.14708252384274 80.34374675385803
    vertex 20.99999999999894 39.14708252384274 80.34374675385817
  endloop
endfacet
facet normal 1.5390347044458675e-14 -0.130526192220038 -0.9914448613738122
  outer loop
    vertex 10.999999999998938 39.14708252384274 80.34374675385803
    vertex 20.999999999998934 38.50003491108643 80.42893218813549
    vertex 10.999999999998936 38.50003491108643 80.42893218813533
  endloop
endfacet
facet normal 1.4341520327129847e-14 -0.38268343236508284 -0.9238795325112896
  outer loop
    vertex 10.999999999998938 39.14708252384274 80.34374675385803
    vertex 20.999999999998945 39.75003491108643 80.09399569759661
    vertex 20.99999999999894 39.14708252384274 80.34374675385817
  endloop
endfacet
facet normal 1.4341520327129847e-14 -0.38268343236508284 -0.9238795325112896
  outer loop
    vertex 20.999999999998945 39.75003491108643 80.09399569759661
    vertex 10.999999999998938 39.14708252384274 80.34374675385803
    vertex 10.999999999998941 39.75003491108643 80.09399569759645
  endloop
endfacet
facet normal 1.2315342699990137e-14 -0.6087614290087101 -0.7933533402912435
  outer loop
    vertex 10.999999999998941 39.75003491108643 80.09399569759645
    vertex 20.999999999998952 40.26780186405281 79.69669914110187
    vertex 20.999999999998945 39.75003491108643 80.09399569759661
  endloop
endfacet
facet normal 1.2315342699990137e-14 -0.6087614290087101 -0.7933533402912435
  outer loop
    vertex 20.999999999998952 40.26780186405281 79.69669914110187
    vertex 10.999999999998941 39.75003491108643 80.09399569759645
    vertex 10.999999999998948 40.26780186405281 79.69669914110172
  endloop
endfacet
facet normal 9.44989481991211e-15 -0.7933533402912287 -0.6087614290087292
  outer loop
    vertex 20.99999999999896 40.665098420547544 79.17893218813553
    vertex 10.999999999998948 40.26780186405281 79.69669914110172
    vertex 10.999999999998959 40.665098420547544 79.17893218813535
  endloop
endfacet
facet normal 9.44989481991211e-15 -0.7933533402912287 -0.6087614290087292
  outer loop
    vertex 10.999999999998948 40.26780186405281 79.69669914110172
    vertex 20.99999999999896 40.665098420547544 79.17893218813553
    vertex 20.999999999998952 40.26780186405281 79.69669914110187
  endloop
endfacet
facet normal 5.940452224546641e-15 -0.9238795325112836 -0.3826834323650976
  outer loop
    vertex 20.999999999998973 40.914849476809124 78.57597980089184
    vertex 10.999999999998959 40.665098420547544 79.17893218813535
    vertex 10.99999999999897 40.914849476809124 78.57597980089166
  endloop
endfacet
facet normal 5.940452224546641e-15 -0.9238795325112836 -0.3826834323650976
  outer loop
    vertex 10.999999999998959 40.665098420547544 79.17893218813535
    vertex 20.999999999998973 40.914849476809124 78.57597980089184
    vertex 20.99999999999896 40.665098420547544 79.17893218813553
  endloop
endfacet
facet normal 2.026177627139752e-15 -0.9914448613738099 -0.13052619222005613
  outer loop
    vertex 20.999999999998973 41.00003491108645 77.92893218813552
    vertex 10.99999999999897 40.914849476809124 78.57597980089166
    vertex 10.999999999998982 41.00003491108645 77.92893218813536
  endloop
endfacet
facet normal 2.026177627139752e-15 -0.9914448613738099 -0.13052619222005613
  outer loop
    vertex 10.99999999999897 40.914849476809124 78.57597980089166
    vertex 20.999999999998973 41.00003491108645 77.92893218813552
    vertex 20.999999999998973 40.914849476809124 78.57597980089184
  endloop
endfacet
facet normal -1.9183429447504082e-29 -1.0 -5.1272117864507014e-15
  outer loop
    vertex 20.999999999998973 41.00003491108645 77.92893218813552
    vertex 10.99999999999949 41.00003491108662 44.92893218813523
    vertex 20.99999999999949 41.00003491108662 44.928932188135384
  endloop
endfacet
facet normal -1.9183429447504082e-29 -1.0 -5.1272117864507014e-15
  outer loop
    vertex 10.99999999999949 41.00003491108662 44.92893218813523
    vertex 20.999999999998973 41.00003491108645 77.92893218813552
    vertex 10.999999999998982 41.00003491108645 77.92893218813536
  endloop
endfacet
facet normal -2.026177627139814e-15 -0.9914448613738109 0.13052619222004763
  outer loop
    vertex 20.99999999999949 41.00003491108662 44.928932188135384
    vertex 10.9999999999995 40.91484947680929 44.28188457537893
    vertex 20.9999999999995 40.91484947680929 44.28188457537909
  endloop
endfacet
facet normal -2.026177627139814e-15 -0.9914448613738109 0.13052619222004763
  outer loop
    vertex 10.9999999999995 40.91484947680929 44.28188457537893
    vertex 20.99999999999949 41.00003491108662 44.928932188135384
    vertex 10.99999999999949 41.00003491108662 44.92893218813523
  endloop
endfacet
facet normal -5.94045222454666e-15 -0.9238795325112878 0.3826834323650872
  outer loop
    vertex 20.999999999999513 40.66509842054772 43.67893218813539
    vertex 10.9999999999995 40.91484947680929 44.28188457537893
    vertex 10.999999999999512 40.66509842054772 43.67893218813522
  endloop
endfacet
facet normal -5.94045222454666e-15 -0.9238795325112878 0.3826834323650872
  outer loop
    vertex 10.9999999999995 40.91484947680929 44.28188457537893
    vertex 20.999999999999513 40.66509842054772 43.67893218813539
    vertex 20.9999999999995 40.91484947680929 44.28188457537909
  endloop
endfacet
facet normal -9.449894819912033e-15 -0.7933533402912402 0.6087614290087142
  outer loop
    vertex 20.99999999999952 40.267801864053006 43.161165235169015
    vertex 10.999999999999512 40.66509842054772 43.67893218813522
    vertex 10.999999999999515 40.267801864053006 43.16116523516886
  endloop
endfacet
facet normal -9.449894819912033e-15 -0.7933533402912402 0.6087614290087142
  outer loop
    vertex 10.999999999999512 40.66509842054772 43.67893218813522
    vertex 20.99999999999952 40.267801864053006 43.161165235169015
    vertex 20.999999999999513 40.66509842054772 43.67893218813539
  endloop
endfacet
facet normal -1.231534269999014e-14 -0.6087614290087197 0.7933533402912362
  outer loop
    vertex 10.999999999999515 40.267801864053006 43.16116523516886
    vertex 20.999999999999527 39.75003491108663 42.76386867867428
    vertex 20.99999999999952 40.267801864053006 43.161165235169015
  endloop
endfacet
facet normal -1.231534269999014e-14 -0.6087614290087197 0.7933533402912362
  outer loop
    vertex 20.999999999999527 39.75003491108663 42.76386867867428
    vertex 10.999999999999515 40.267801864053006 43.16116523516886
    vertex 10.999999999999522 39.75003491108663 42.763868678674136
  endloop
endfacet
facet normal -1.4341520327129838e-14 -0.3826834323650976 0.9238795325112836
  outer loop
    vertex 20.999999999999527 39.75003491108663 42.76386867867428
    vertex 10.999999999999526 39.14708252384293 42.514117622412556
    vertex 20.999999999999535 39.14708252384293 42.514117622412705
  endloop
endfacet
facet normal -1.4341520327129838e-14 -0.3826834323650976 0.9238795325112836
  outer loop
    vertex 10.999999999999526 39.14708252384293 42.514117622412556
    vertex 20.999999999999527 39.75003491108663 42.76386867867428
    vertex 10.999999999999522 39.75003491108663 42.763868678674136
  endloop
endfacet
facet normal -1.5390347044458666e-14 -0.13052619222005613 0.9914448613738099
  outer loop
    vertex 10.999999999999526 39.14708252384293 42.514117622412556
    vertex 20.999999999999527 38.50003491108664 42.428932188135384
    vertex 20.999999999999535 39.14708252384293 42.514117622412705
  endloop
endfacet
facet normal -1.5390347044458666e-14 -0.13052619222005613 0.9914448613738099
  outer loop
    vertex 20.999999999999527 38.50003491108664 42.428932188135384
    vertex 10.999999999999526 39.14708252384293 42.514117622412556
    vertex 10.99999999999953 38.50003491108664 42.428932188135214
  endloop
endfacet
facet normal -1.5390347044458666e-14 0.13052619222004763 0.9914448613738109
  outer loop
    vertex 20.999999999999527 38.50003491108664 42.428932188135384
    vertex 10.99999999999953 37.85298729833033 42.51411762241254
    vertex 20.999999999999527 37.85298729833033 42.51411762241268
  endloop
endfacet
facet normal -1.5390347044458666e-14 0.13052619222004763 0.9914448613738109
  outer loop
    vertex 10.99999999999953 37.85298729833033 42.51411762241254
    vertex 20.999999999999527 38.50003491108664 42.428932188135384
    vertex 10.99999999999953 38.50003491108664 42.428932188135214
  endloop
endfacet
facet normal -1.4341520327129825e-14 0.3826834323650872 0.9238795325112878
  outer loop
    vertex 10.99999999999953 37.85298729833033 42.51411762241254
    vertex 20.99999999999952 37.25003491108663 42.76386867867427
    vertex 20.999999999999527 37.85298729833033 42.51411762241268
  endloop
endfacet
facet normal -1.4341520327129825e-14 0.3826834323650872 0.9238795325112878
  outer loop
    vertex 20.99999999999952 37.25003491108663 42.76386867867427
    vertex 10.99999999999953 37.85298729833033 42.51411762241254
    vertex 10.999999999999522 37.25003491108663 42.76386867867412
  endloop
endfacet
facet normal -1.2315342699990086e-14 0.6087614290087142 0.7933533402912402
  outer loop
    vertex 10.999999999999522 37.25003491108663 42.76386867867412
    vertex 20.999999999999517 36.732267958120275 43.161165235168994
    vertex 20.99999999999952 37.25003491108663 42.76386867867427
  endloop
endfacet
facet normal -1.2315342699990086e-14 0.6087614290087142 0.7933533402912402
  outer loop
    vertex 20.999999999999517 36.732267958120275 43.161165235168994
    vertex 10.999999999999522 37.25003491108663 42.76386867867412
    vertex 10.999999999999515 36.732267958120275 43.161165235168845
  endloop
endfacet
facet normal -9.449894819911962e-15 0.7933533402912362 0.6087614290087197
  outer loop
    vertex 10.999999999999512 36.33497140162553 43.67893218813521
    vertex 20.999999999999517 36.732267958120275 43.161165235168994
    vertex 10.999999999999515 36.732267958120275 43.161165235168845
  endloop
endfacet
facet normal -9.449894819911962e-15 0.7933533402912362 0.6087614290087197
  outer loop
    vertex 20.999999999999517 36.732267958120275 43.161165235168994
    vertex 10.999999999999512 36.33497140162553 43.67893218813521
    vertex 20.999999999999513 36.33497140162553 43.67893218813537
  endloop
endfacet
facet normal -5.940452224546641e-15 0.9238795325112836 0.3826834323650976
  outer loop
    vertex 10.9999999999995 36.08522034536395 44.2818845753789
    vertex 20.999999999999513 36.33497140162553 43.67893218813537
    vertex 10.999999999999512 36.33497140162553 43.67893218813521
  endloop
endfacet
facet normal -5.940452224546641e-15 0.9238795325112836 0.3826834323650976
  outer loop
    vertex 20.999999999999513 36.33497140162553 43.67893218813537
    vertex 10.9999999999995 36.08522034536395 44.2818845753789
    vertex 20.9999999999995 36.08522034536395 44.28188457537907
  endloop
endfacet
facet normal -2.026177627139752e-15 0.9914448613738099 0.13052619222005613
  outer loop
    vertex 10.99999999999949 36.00003491108662 44.92893218813521
    vertex 20.9999999999995 36.08522034536395 44.28188457537907
    vertex 10.9999999999995 36.08522034536395 44.2818845753789
  endloop
endfacet
facet normal -2.026177627139752e-15 0.9914448613738099 0.13052619222005613
  outer loop
    vertex 20.9999999999995 36.08522034536395 44.28188457537907
    vertex 10.99999999999949 36.00003491108662 44.92893218813521
    vertex 20.99999999999949 36.00003491108662 44.92893218813536
  endloop
endfacet
facet normal 3.9479530755670774e-15 -3.9479530755670774e-15 -1.0
  outer loop
    vertex 25.999999999998806 48.500034911086345 87.92893218813542
    vertex 5.999999999998913 28.50003491108645 87.92893218813542
    vertex 5.999999999998913 48.500034911086345 87.92893218813542
  endloop
endfacet
facet normal 3.9479530755670774e-15 -3.9479530755670774e-15 -1.0
  outer loop
    vertex 5.999999999998913 28.50003491108645 87.92893218813542
    vertex 25.999999999998806 48.500034911086345 87.92893218813542
    vertex 25.999999999998806 28.50003491108645 87.92893218813558
  endloop
endfacet
facet normal 0.0 1.0 -3.947953075567078e-15
  outer loop
    vertex 5.999999999998756 48.5000349110865 127.9289321881354
    vertex 25.999999999998806 48.500034911086345 87.92893218813542
    vertex 5.999999999998913 48.500034911086345 87.92893218813542
  endloop
endfacet
facet normal 0.0 1.0 -3.947953075567078e-15
  outer loop
    vertex 25.999999999998806 48.500034911086345 87.92893218813542
    vertex 5.999999999998756 48.5000349110865 127.9289321881354
    vertex 25.99999999999865 48.5000349110865 127.9289321881354
  endloop
endfacet
facet normal 1.0 3.1172666973759094e-29 3.947953075567078e-15
  outer loop
    vertex 25.999999999998806 48.500034911086345 87.92893218813542
    vertex 25.99999999999865 28.50003491108661 127.92893218813556
    vertex 25.999999999998806 28.50003491108645 87.92893218813558
  endloop
endfacet
facet normal 1.0 3.1172666973759094e-29 3.947953075567078e-15
  outer loop
    vertex 25.99999999999865 28.50003491108661 127.92893218813556
    vertex 25.999999999998806 48.500034911086345 87.92893218813542
    vertex 25.99999999999865 48.5000349110865 127.9289321881354
  endloop
endfacet
facet normal -3.304185454381719e-15 3.304185454381716e-15 1.0
  outer loop
    vertex 9.721482129119867 36.81771111792006 97.92893218813545
    vertex 9.721482129119865 40.18235870425283 97.92893218813545
    vertex 9.49999999999881 38.500034911086445 97.92893218813545
  endloop
endfacet
facet normal -3.304185454381719e-15 3.304185454381716e-15 1.0
  outer loop
    vertex 9.721482129119865 40.18235870425283 97.92893218813545
    vertex 9.721482129119867 36.81771111792006 97.92893218813545
    vertex 10.370834875399957 41.750034911086445 97.92893218813545
  endloop
endfacet
facet normal -3.304185454381719e-15 3.304185454381716e-15 1.0
  outer loop
    vertex 10.370834875399957 41.750034911086445 97.92893218813545
    vertex 9.721482129119867 36.81771111792006 97.92893218813545
    vertex 10.370834875399959 35.25003491108645 97.92893218813545
  endloop
endfacet
facet normal -3.304185454381719e-15 3.304185454381716e-15 1.0
  outer loop
    vertex 10.370834875399957 41.750034911086445 97.92893218813545
    vertex 10.370834875399959 35.25003491108645 97.92893218813545
    vertex 11.403805922286248 43.096228988799 97.92893218813539
  endloop
endfacet
facet normal -3.304185454381719e-15 3.304185454381716e-15 1.0
  outer loop
    vertex 11.403805922286248 43.096228988799 97.92893218813539
    vertex 10.370834875399959 35.25003491108645 97.92893218813545
    vertex 11.40380592228625 33.90384083337389 97.92893218813545
  endloop
endfacet
facet normal -3.304185454381719e-15 3.304185454381716e-15 1.0
  outer loop
    vertex 11.403805922286248 43.096228988799 97.92893218813539
    vertex 11.40380592228625 33.90384083337389 97.92893218813545
    vertex 12.749999999998803 44.1292000356853 97.92893218813545
  endloop
endfacet
facet normal -3.304185454381719e-15 3.304185454381716e-15 1.0
  outer loop
    vertex 12.749999999998803 44.1292000356853 97.92893218813545
    vertex 11.40380592228625 33.90384083337389 97.92893218813545
    vertex 12.74999999999881 32.870869786487596 97.92893218813545
  endloop
endfacet
facet normal -3.304185454381719e-15 3.304185454381716e-15 1.0
  outer loop
    vertex 12.749999999998803 44.1292000356853 97.92893218813545
    vertex 12.74999999999881 32.870869786487596 97.92893218813545
    vertex 14.317676206832417 44.77855278196539 97.92893218813545
  endloop
endfacet
facet normal -3.304185454381719e-15 3.304185454381716e-15 1.0
  outer loop
    vertex 14.317676206832417 44.77855278196539 97.92893218813545
    vertex 12.74999999999881 32.870869786487596 97.92893218813545
    vertex 14.317676206832422 32.2215170402075 97.92893218813549
  endloop
endfacet
facet normal -3.304185454381719e-15 3.304185454381716e-15 1.0
  outer loop
    vertex 14.317676206832417 44.77855278196539 97.92893218813545
    vertex 14.317676206832422 32.2215170402075 97.92893218813549
    vertex 15.999999999998808 45.000034911086445 97.92893218813545
  endloop
endfacet
facet normal -3.304185454381719e-15 3.304185454381716e-15 1.0
  outer loop
    vertex 15.999999999998808 45.000034911086445 97.92893218813545
    vertex 14.317676206832422 32.2215170402075 97.92893218813549
    vertex 15.999999999998808 32.00003491108645 97.92893218813549
  endloop
endfacet
facet normal -3.304185454381719e-15 3.304185454381716e-15 1.0
  outer loop
    vertex 15.999999999998808 45.000034911086445 97.92893218813545
    vertex 15.999999999998808 32.00003491108645 97.92893218813549
    vertex 17.682323793165196 32.2215170402075 97.92893218813549
  endloop
endfacet
facet normal -3.304185454381719e-15 3.304185454381716e-15 1.0
  outer loop
    vertex 15.999999999998808 45.000034911086445 97.92893218813545
    vertex 17.682323793165196 32.2215170402075 97.92893218813549
    vertex 17.68232379316519 44.778552781965395 97.92893218813545
  endloop
endfacet
facet normal -3.304185454381719e-15 3.304185454381716e-15 1.0
  outer loop
    vertex 17.68232379316519 44.778552781965395 97.92893218813545
    vertex 17.682323793165196 32.2215170402075 97.92893218813549
    vertex 19.249999999998803 44.1292000356853 97.92893218813545
  endloop
endfacet
facet normal -3.304185454381719e-15 3.304185454381716e-15 1.0
  outer loop
    vertex 19.249999999998803 44.1292000356853 97.92893218813545
    vertex 17.682323793165196 32.2215170402075 97.92893218813549
    vertex 19.24999999999881 32.870869786487596 97.92893218813549
  endloop
endfacet
facet normal -3.304185454381719e-15 3.304185454381716e-15 1.0
  outer loop
    vertex 19.249999999998803 44.1292000356853 97.92893218813545
    vertex 19.24999999999881 32.870869786487596 97.92893218813549
    vertex 20.596194077711367 43.096228988799005 97.92893218813545
  endloop
endfacet
facet normal -3.304185454381719e-15 3.304185454381716e-15 1.0
  outer loop
    vertex 20.596194077711367 43.096228988799005 97.92893218813545
    vertex 19.24999999999881 32.870869786487596 97.92893218813549
    vertex 20.596194077711367 33.90384083337389 97.92893218813549
  endloop
endfacet
facet normal -3.304185454381719e-15 3.304185454381716e-15 1.0
  outer loop
    vertex 20.596194077711367 43.096228988799005 97.92893218813545
    vertex 20.596194077711367 33.90384083337389 97.92893218813549
    vertex 21.629165124597662 35.25003491108645 97.92893218813549
  endloop
endfacet
facet normal -3.304185454381719e-15 3.304185454381716e-15 1.0
  outer loop
    vertex 20.596194077711367 43.096228988799005 97.92893218813545
    vertex 21.629165124597662 35.25003491108645 97.92893218813549
    vertex 21.629165124597655 41.750034911086445 97.92893218813545
  endloop
endfacet
facet normal -3.304185454381719e-15 3.304185454381716e-15 1.0
  outer loop
    vertex 21.629165124597655 41.750034911086445 97.92893218813545
    vertex 21.629165124597662 35.25003491108645 97.92893218813549
    vertex 22.27851787087775 40.18235870425284 97.92893218813549
  endloop
endfacet
facet normal -3.304185454381719e-15 3.304185454381716e-15 1.0
  outer loop
    vertex 22.27851787087775 40.18235870425284 97.92893218813549
    vertex 21.629165124597662 35.25003491108645 97.92893218813549
    vertex 22.27851787087775 36.81771111792006 97.92893218813549
  endloop
endfacet
facet normal -3.304185454381719e-15 3.304185454381716e-15 1.0
  outer loop
    vertex 22.27851787087775 40.18235870425284 97.92893218813549
    vertex 22.27851787087775 36.81771111792006 97.92893218813549
    vertex 22.49999999999881 38.500034911086445 97.92893218813549
  endloop
endfacet
facet normal 0.9914448613738105 -0.1305261922200512 3.70720043552217e-15
  outer loop
    vertex 9.721482129119865 40.18235870425283 97.92893218813545
    vertex 9.499999999998703 38.50003491108656 127.92893218813543
    vertex 9.49999999999881 38.500034911086445 97.92893218813545
  endloop
endfacet
facet normal 0.9914448613738105 -0.1305261922200512 3.70720043552217e-15
  outer loop
    vertex 9.499999999998703 38.50003491108656 127.92893218813543
    vertex 9.721482129119865 40.18235870425283 97.92893218813545
    vertex 9.721482129119758 40.182358704252934 127.92893218813543
  endloop
endfacet
facet normal 0.9914448613738104 0.1305261922200516 2.8446349440235177e-15
  outer loop
    vertex 9.49999999999881 38.500034911086445 97.92893218813545
    vertex 9.72148212911976 36.81771111792017 127.92893218813543
    vertex 9.721482129119867 36.81771111792006 97.92893218813545
  endloop
endfacet
facet normal 0.9914448613738104 0.1305261922200516 2.8446349440235177e-15
  outer loop
    vertex 9.72148212911976 36.81771111792017 127.92893218813543
    vertex 9.49999999999881 38.500034911086445 97.92893218813545
    vertex 9.499999999998703 38.50003491108656 127.92893218813543
  endloop
endfacet
facet normal 0.9238795325112864 0.38268343236509095 1.7882122820711724e-15
  outer loop
    vertex 9.721482129119867 36.81771111792006 97.92893218813545
    vertex 10.370834875399854 35.25003491108656 127.92893218813546
    vertex 10.370834875399959 35.25003491108645 97.92893218813545
  endloop
endfacet
facet normal 0.9238795325112864 0.38268343236509095 1.7882122820711724e-15
  outer loop
    vertex 10.370834875399854 35.25003491108656 127.92893218813546
    vertex 9.721482129119867 36.81771111792006 97.92893218813545
    vertex 9.72148212911976 36.81771111792017 127.92893218813543
  endloop
endfacet
facet normal 0.7933533402912359 0.6087614290087195 6.099259082562134e-16
  outer loop
    vertex 10.370834875399959 35.25003491108645 97.92893218813545
    vertex 11.403805922286145 33.903840833374 127.92893218813546
    vertex 11.40380592228625 33.90384083337389 97.92893218813545
  endloop
endfacet
facet normal 0.7933533402912359 0.6087614290087195 6.099259082562134e-16
  outer loop
    vertex 11.403805922286145 33.903840833374 127.92893218813546
    vertex 10.370834875399959 35.25003491108645 97.92893218813545
    vertex 10.370834875399854 35.25003491108656 127.92893218813546
  endloop
endfacet
facet normal 0.6087614290087208 0.7933533402912353 -6.099259082562028e-16
  outer loop
    vertex 11.403805922286145 33.903840833374 127.92893218813546
    vertex 12.74999999999881 32.870869786487596 97.92893218813545
    vertex 11.40380592228625 33.90384083337389 97.92893218813545
  endloop
endfacet
facet normal 0.6087614290087208 0.7933533402912353 -6.099259082562028e-16
  outer loop
    vertex 12.74999999999881 32.870869786487596 97.92893218813545
    vertex 11.403805922286145 33.903840833374 127.92893218813546
    vertex 12.749999999998701 32.8708697864877 127.92893218813546
  endloop
endfacet
facet normal 0.3826834323650903 0.9238795325112865 -1.7882122820711708e-15
  outer loop
    vertex 12.749999999998701 32.8708697864877 127.92893218813546
    vertex 14.317676206832422 32.2215170402075 97.92893218813549
    vertex 12.74999999999881 32.870869786487596 97.92893218813545
  endloop
endfacet
facet normal 0.3826834323650903 0.9238795325112865 -1.7882122820711708e-15
  outer loop
    vertex 14.317676206832422 32.2215170402075 97.92893218813549
    vertex 12.749999999998701 32.8708697864877 127.92893218813546
    vertex 14.31767620683232 32.22151704020761 127.92893218813548
  endloop
endfacet
facet normal 0.1305261922200502 0.9914448613738107 -2.84463494402352e-15
  outer loop
    vertex 14.31767620683232 32.22151704020761 127.92893218813548
    vertex 15.999999999998808 32.00003491108645 97.92893218813549
    vertex 14.317676206832422 32.2215170402075 97.92893218813549
  endloop
endfacet
facet normal 0.1305261922200502 0.9914448613738107 -2.84463494402352e-15
  outer loop
    vertex 15.999999999998808 32.00003491108645 97.92893218813549
    vertex 14.31767620683232 32.22151704020761 127.92893218813548
    vertex 15.999999999998701 32.00003491108656 127.92893218813548
  endloop
endfacet
facet normal -0.13052619222005 0.9914448613738107 -3.7072004355221635e-15
  outer loop
    vertex 15.999999999998701 32.00003491108656 127.92893218813548
    vertex 17.682323793165196 32.2215170402075 97.92893218813549
    vertex 15.999999999998808 32.00003491108645 97.92893218813549
  endloop
endfacet
facet normal -0.13052619222005 0.9914448613738107 -3.7072004355221635e-15
  outer loop
    vertex 17.682323793165196 32.2215170402075 97.92893218813549
    vertex 15.999999999998701 32.00003491108656 127.92893218813548
    vertex 17.68232379316509 32.22151704020761 127.92893218813548
  endloop
endfacet
facet normal -0.38268343236509095 0.9238795325112864 -4.3171263437783754e-15
  outer loop
    vertex 17.68232379316509 32.22151704020761 127.92893218813548
    vertex 19.24999999999881 32.870869786487596 97.92893218813549
    vertex 17.682323793165196 32.2215170402075 97.92893218813549
  endloop
endfacet
facet normal -0.38268343236509095 0.9238795325112864 -4.3171263437783754e-15
  outer loop
    vertex 19.24999999999881 32.870869786487596 97.92893218813549
    vertex 17.68232379316509 32.22151704020761 127.92893218813548
    vertex 19.2499999999987 32.8708697864877 127.92893218813548
  endloop
endfacet
facet normal -0.6087614290087208 0.7933533402912353 -4.632847226094692e-15
  outer loop
    vertex 19.2499999999987 32.8708697864877 127.92893218813548
    vertex 20.596194077711367 33.90384083337389 97.92893218813549
    vertex 19.24999999999881 32.870869786487596 97.92893218813549
  endloop
endfacet
facet normal -0.6087614290087208 0.7933533402912353 -4.632847226094692e-15
  outer loop
    vertex 20.596194077711367 33.90384083337389 97.92893218813549
    vertex 19.2499999999987 32.8708697864877 127.92893218813548
    vertex 20.59619407771126 33.903840833374 127.9289321881355
  endloop
endfacet
facet normal -0.7933533402912353 0.6087614290087208 -4.632847226094692e-15
  outer loop
    vertex 20.59619407771126 33.903840833374 127.9289321881355
    vertex 21.629165124597662 35.25003491108645 97.92893218813549
    vertex 20.596194077711367 33.90384083337389 97.92893218813549
  endloop
endfacet
facet normal -0.7933533402912353 0.6087614290087208 -4.632847226094692e-15
  outer loop
    vertex 21.629165124597662 35.25003491108645 97.92893218813549
    vertex 20.59619407771126 33.903840833374 127.9289321881355
    vertex 21.629165124597552 35.25003491108656 127.92893218813548
  endloop
endfacet
facet normal -0.923879532511287 0.3826834323650895 -4.317126343778375e-15
  outer loop
    vertex 21.629165124597552 35.25003491108656 127.92893218813548
    vertex 22.27851787087775 36.81771111792006 97.92893218813549
    vertex 21.629165124597662 35.25003491108645 97.92893218813549
  endloop
endfacet
facet normal -0.923879532511287 0.3826834323650895 -4.317126343778375e-15
  outer loop
    vertex 22.27851787087775 36.81771111792006 97.92893218813549
    vertex 21.629165124597552 35.25003491108656 127.92893218813548
    vertex 22.278517870877646 36.81771111792017 127.92893218813548
  endloop
endfacet
facet normal -0.9914448613738104 0.1305261922200516 -3.7072004355221706e-15
  outer loop
    vertex 22.278517870877646 36.81771111792017 127.92893218813548
    vertex 22.49999999999881 38.500034911086445 97.92893218813549
    vertex 22.27851787087775 36.81771111792006 97.92893218813549
  endloop
endfacet
facet normal -0.9914448613738104 0.1305261922200516 -3.7072004355221706e-15
  outer loop
    vertex 22.49999999999881 38.500034911086445 97.92893218813549
    vertex 22.278517870877646 36.81771111792017 127.92893218813548
    vertex 22.4999999999987 38.50003491108656 127.92893218813548
  endloop
endfacet
facet normal -0.9914448613738106 -0.13052619222005118 -2.84463494402352e-15
  outer loop
    vertex 22.4999999999987 38.50003491108656 127.92893218813548
    vertex 22.27851787087775 40.18235870425284 97.92893218813549
    vertex 22.49999999999881 38.500034911086445 97.92893218813549
  endloop
endfacet
facet normal -0.9914448613738106 -0.13052619222005118 -2.84463494402352e-15
  outer loop
    vertex 22.27851787087775 40.18235870425284 97.92893218813549
    vertex 22.4999999999987 38.50003491108656 127.92893218813548
    vertex 22.278517870877646 40.18235870425295 127.92893218813548
  endloop
endfacet
facet normal -0.9238795325112859 -0.38268343236509206 -1.7882122820711664e-15
  outer loop
    vertex 22.278517870877646 40.18235870425295 127.92893218813548
    vertex 21.629165124597655 41.750034911086445 97.92893218813545
    vertex 22.27851787087775 40.18235870425284 97.92893218813549
  endloop
endfacet
facet normal -0.9238795325112859 -0.38268343236509206 -1.7882122820711664e-15
  outer loop
    vertex 21.629165124597655 41.750034911086445 97.92893218813545
    vertex 22.278517870877646 40.18235870425295 127.92893218813548
    vertex 21.629165124597552 41.75003491108656 127.92893218813546
  endloop
endfacet
facet normal -0.7933533402912359 -0.6087614290087195 -6.099259082562134e-16
  outer loop
    vertex 21.629165124597552 41.75003491108656 127.92893218813546
    vertex 20.596194077711367 43.096228988799005 97.92893218813545
    vertex 21.629165124597655 41.750034911086445 97.92893218813545
  endloop
endfacet
facet normal -0.7933533402912359 -0.6087614290087195 -6.099259082562134e-16
  outer loop
    vertex 20.596194077711367 43.096228988799005 97.92893218813545
    vertex 21.629165124597552 41.75003491108656 127.92893218813546
    vertex 20.59619407771126 43.09622898879911 127.92893218813546
  endloop
endfacet
facet normal -0.6087614290087191 -0.7933533402912364 6.099259082562123e-16
  outer loop
    vertex 20.59619407771126 43.09622898879911 127.92893218813546
    vertex 19.249999999998803 44.1292000356853 97.92893218813545
    vertex 20.596194077711367 43.096228988799005 97.92893218813545
  endloop
endfacet
facet normal -0.6087614290087191 -0.7933533402912364 6.099259082562123e-16
  outer loop
    vertex 19.249999999998803 44.1292000356853 97.92893218813545
    vertex 20.59619407771126 43.09622898879911 127.92893218813546
    vertex 19.249999999998696 44.12920003568541 127.92893218813546
  endloop
endfacet
facet normal -0.38268343236509095 -0.9238795325112864 1.7882122820711684e-15
  outer loop
    vertex 19.249999999998696 44.12920003568541 127.92893218813546
    vertex 17.68232379316519 44.778552781965395 97.92893218813545
    vertex 19.249999999998803 44.1292000356853 97.92893218813545
  endloop
endfacet
facet normal -0.38268343236509095 -0.9238795325112864 1.7882122820711684e-15
  outer loop
    vertex 17.68232379316519 44.778552781965395 97.92893218813545
    vertex 19.249999999998696 44.12920003568541 127.92893218813546
    vertex 17.682323793165082 44.7785527819655 127.92893218813543
  endloop
endfacet
facet normal -0.1305261922200504 -0.9914448613738107 2.8446349440235193e-15
  outer loop
    vertex 17.682323793165082 44.7785527819655 127.92893218813543
    vertex 15.999999999998808 45.000034911086445 97.92893218813545
    vertex 17.68232379316519 44.778552781965395 97.92893218813545
  endloop
endfacet
facet normal -0.1305261922200504 -0.9914448613738107 2.8446349440235193e-15
  outer loop
    vertex 15.999999999998808 45.000034911086445 97.92893218813545
    vertex 17.682323793165082 44.7785527819655 127.92893218813543
    vertex 15.999999999998701 45.00003491108655 127.92893218813543
  endloop
endfacet
facet normal 0.13052619222005302 -0.9914448613738102 3.707200435522172e-15
  outer loop
    vertex 15.999999999998701 45.00003491108655 127.92893218813543
    vertex 14.317676206832417 44.77855278196539 97.92893218813545
    vertex 15.999999999998808 45.000034911086445 97.92893218813545
  endloop
endfacet
facet normal 0.13052619222005302 -0.9914448613738102 3.707200435522172e-15
  outer loop
    vertex 14.317676206832417 44.77855278196539 97.92893218813545
    vertex 15.999999999998701 45.00003491108655 127.92893218813543
    vertex 14.317676206832315 44.778552781965494 127.92893218813543
  endloop
endfacet
facet normal 0.382683432365088 -0.9238795325112874 4.317126343778369e-15
  outer loop
    vertex 14.317676206832315 44.778552781965494 127.92893218813543
    vertex 12.749999999998803 44.1292000356853 97.92893218813545
    vertex 14.317676206832417 44.77855278196539 97.92893218813545
  endloop
endfacet
facet normal 0.382683432365088 -0.9238795325112874 4.317126343778369e-15
  outer loop
    vertex 12.749999999998803 44.1292000356853 97.92893218813545
    vertex 14.317676206832315 44.778552781965494 127.92893218813543
    vertex 12.749999999998701 44.12920003568541 127.92893218813543
  endloop
endfacet
facet normal 0.6087614290087228 -0.7933533402912336 4.632847226094692e-15
  outer loop
    vertex 12.749999999998803 44.1292000356853 97.92893218813545
    vertex 11.403805922286141 43.09622898879911 127.9289321881354
    vertex 11.403805922286248 43.096228988799 97.92893218813539
  endloop
endfacet
facet normal 0.6087614290087228 -0.7933533402912336 4.632847226094692e-15
  outer loop
    vertex 11.403805922286141 43.09622898879911 127.9289321881354
    vertex 12.749999999998803 44.1292000356853 97.92893218813545
    vertex 12.749999999998701 44.12920003568541 127.92893218813543
  endloop
endfacet
facet normal 0.7933533402912348 -0.6087614290087212 4.632847226094693e-15
  outer loop
    vertex 11.403805922286248 43.096228988799 97.92893218813539
    vertex 10.37083487539985 41.75003491108656 127.92893218813543
    vertex 10.370834875399957 41.750034911086445 97.92893218813545
  endloop
endfacet
facet normal 0.7933533402912348 -0.6087614290087212 4.632847226094693e-15
  outer loop
    vertex 10.37083487539985 41.75003491108656 127.92893218813543
    vertex 11.403805922286248 43.096228988799 97.92893218813539
    vertex 11.403805922286141 43.09622898879911 127.9289321881354
  endloop
endfacet
facet normal 0.9238795325112871 -0.382683432365089 4.317126343778374e-15
  outer loop
    vertex 10.370834875399957 41.750034911086445 97.92893218813545
    vertex 9.721482129119758 40.182358704252934 127.92893218813543
    vertex 9.721482129119865 40.18235870425283 97.92893218813545
  endloop
endfacet
facet normal 0.9238795325112871 -0.382683432365089 4.317126343778374e-15
  outer loop
    vertex 9.721482129119758 40.182358704252934 127.92893218813543
    vertex 10.370834875399957 41.750034911086445 97.92893218813545
    vertex 10.37083487539985 41.75003491108656 127.92893218813543
  endloop
endfacet
facet normal -1.0 0.0 -3.947953075567078e-15
  outer loop
    vertex 5.999999999998756 28.50003491108661 127.9289321881354
    vertex 5.999999999998913 48.500034911086345 87.92893218813542
    vertex 5.999999999998913 28.50003491108645 87.92893218813542
  endloop
endfacet
facet normal -1.0 0.0 -3.947953075567078e-15
  outer loop
    vertex 5.999999999998913 48.500034911086345 87.92893218813542
    vertex 5.999999999998756 28.50003491108661 127.9289321881354
    vertex 5.999999999998756 48.5000349110865 127.9289321881354
  endloop
endfacet
facet normal -3.1172666973759094e-29 -1.0 3.947953075567078e-15
  outer loop
    vertex 25.999999999998806 28.50003491108645 87.92893218813558
    vertex 5.999999999998756 28.50003491108661 127.9289321881354
    vertex 5.999999999998913 28.50003491108645 87.92893218813542
  endloop
endfacet
facet normal -3.1172666973759094e-29 -1.0 3.947953075567078e-15
  outer loop
    vertex 5.999999999998756 28.50003491108661 127.9289321881354
    vertex 25.999999999998806 28.50003491108645 87.92893218813558
    vertex 25.99999999999865 28.50003491108661 127.92893218813556
  endloop
endfacet
facet normal -3.9479530755670774e-15 3.9479530755670774e-15 1.0
  outer loop
    vertex 5.999999999998756 28.50003491108661 127.9289321881354
    vertex 9.72148212911976 36.81771111792017 127.92893218813543
    vertex 5.999999999998756 48.5000349110865 127.9289321881354
  endloop
endfacet
facet normal -3.9479530755670774e-15 3.9479530755670774e-15 1.0
  outer loop
    vertex 9.72148212911976 36.81771111792017 127.92893218813543
    vertex 5.999999999998756 28.50003491108661 127.9289321881354
    vertex 10.370834875399854 35.25003491108656 127.92893218813546
  endloop
endfacet
facet normal -3.9479530755670774e-15 3.9479530755670774e-15 1.0
  outer loop
    vertex 10.370834875399854 35.25003491108656 127.92893218813546
    vertex 5.999999999998756 28.50003491108661 127.9289321881354
    vertex 11.403805922286145 33.903840833374 127.92893218813546
  endloop
endfacet
facet normal -3.9479530755670774e-15 3.9479530755670774e-15 1.0
  outer loop
    vertex 11.403805922286145 33.903840833374 127.92893218813546
    vertex 5.999999999998756 28.50003491108661 127.9289321881354
    vertex 12.749999999998701 32.8708697864877 127.92893218813546
  endloop
endfacet
facet normal -3.9479530755670774e-15 3.9479530755670774e-15 1.0
  outer loop
    vertex 12.749999999998701 32.8708697864877 127.92893218813546
    vertex 5.999999999998756 28.50003491108661 127.9289321881354
    vertex 14.31767620683232 32.22151704020761 127.92893218813548
  endloop
endfacet
facet normal -3.9479530755670774e-15 3.9479530755670774e-15 1.0
  outer loop
    vertex 14.31767620683232 32.22151704020761 127.92893218813548
    vertex 5.999999999998756 28.50003491108661 127.9289321881354
    vertex 25.99999999999865 28.50003491108661 127.92893218813556
  endloop
endfacet
facet normal -3.9479530755670774e-15 3.9479530755670774e-15 1.0
  outer loop
    vertex 5.999999999998756 48.5000349110865 127.9289321881354
    vertex 9.72148212911976 36.81771111792017 127.92893218813543
    vertex 9.499999999998703 38.50003491108656 127.92893218813543
  endloop
endfacet
facet normal -3.9479530755670774e-15 3.9479530755670774e-15 1.0
  outer loop
    vertex 14.31767620683232 32.22151704020761 127.92893218813548
    vertex 25.99999999999865 28.50003491108661 127.92893218813556
    vertex 15.999999999998701 32.00003491108656 127.92893218813548
  endloop
endfacet
facet normal -3.9479530755670774e-15 3.9479530755670774e-15 1.0
  outer loop
    vertex 15.999999999998701 32.00003491108656 127.92893218813548
    vertex 25.99999999999865 28.50003491108661 127.92893218813556
    vertex 17.68232379316509 32.22151704020761 127.92893218813548
  endloop
endfacet
facet normal -3.9479530755670774e-15 3.9479530755670774e-15 1.0
  outer loop
    vertex 17.68232379316509 32.22151704020761 127.92893218813548
    vertex 25.99999999999865 28.50003491108661 127.92893218813556
    vertex 19.2499999999987 32.8708697864877 127.92893218813548
  endloop
endfacet
facet normal -3.9479530755670774e-15 3.9479530755670774e-15 1.0
  outer loop
    vertex 19.2499999999987 32.8708697864877 127.92893218813548
    vertex 25.99999999999865 28.50003491108661 127.92893218813556
    vertex 20.59619407771126 33.903840833374 127.9289321881355
  endloop
endfacet
facet normal -3.9479530755670774e-15 3.9479530755670774e-15 1.0
  outer loop
    vertex 20.59619407771126 33.903840833374 127.9289321881355
    vertex 25.99999999999865 28.50003491108661 127.92893218813556
    vertex 21.629165124597552 35.25003491108656 127.92893218813548
  endloop
endfacet
facet normal -3.9479530755670774e-15 3.9479530755670774e-15 1.0
  outer loop
    vertex 21.629165124597552 35.25003491108656 127.92893218813548
    vertex 25.99999999999865 28.50003491108661 127.92893218813556
    vertex 22.278517870877646 36.81771111792017 127.92893218813548
  endloop
endfacet
facet normal -3.9479530755670774e-15 3.9479530755670774e-15 1.0
  outer loop
    vertex 22.278517870877646 36.81771111792017 127.92893218813548
    vertex 25.99999999999865 28.50003491108661 127.92893218813556
    vertex 22.4999999999987 38.50003491108656 127.92893218813548
  endloop
endfacet
facet normal -3.9479530755670774e-15 3.9479530755670774e-15 1.0
  outer loop
    vertex 5.999999999998756 48.5000349110865 127.9289321881354
    vertex 14.317676206832315 44.778552781965494 127.92893218813543
    vertex 25.99999999999865 48.5000349110865 127.9289321881354
  endloop
endfacet
facet normal -3.9479530755670774e-15 3.9479530755670774e-15 1.0
  outer loop
    vertex 14.317676206832315 44.778552781965494 127.92893218813543
    vertex 5.999999999998756 48.5000349110865 127.9289321881354
    vertex 12.749999999998701 44.12920003568541 127.92893218813543
  endloop
endfacet
facet normal -3.9479530755670774e-15 3.9479530755670774e-15 1.0
  outer loop
    vertex 12.749999999998701 44.12920003568541 127.92893218813543
    vertex 5.999999999998756 48.5000349110865 127.9289321881354
    vertex 11.403805922286141 43.09622898879911 127.9289321881354
  endloop
endfacet
facet normal -3.9479530755670774e-15 3.9479530755670774e-15 1.0
  outer loop
    vertex 11.403805922286141 43.09622898879911 127.9289321881354
    vertex 5.999999999998756 48.5000349110865 127.9289321881354
    vertex 10.37083487539985 41.75003491108656 127.92893218813543
  endloop
endfacet
facet normal -3.9479530755670774e-15 3.9479530755670774e-15 1.0
  outer loop
    vertex 10.37083487539985 41.75003491108656 127.92893218813543
    vertex 5.999999999998756 48.5000349110865 127.9289321881354
    vertex 9.721482129119758 40.182358704252934 127.92893218813543
  endloop
endfacet
facet normal -3.9479530755670774e-15 3.9479530755670774e-15 1.0
  outer loop
    vertex 9.721482129119758 40.182358704252934 127.92893218813543
    vertex 5.999999999998756 48.5000349110865 127.9289321881354
    vertex 9.499999999998703 38.50003491108656 127.92893218813543
  endloop
endfacet
facet normal -3.9479530755670774e-15 3.9479530755670774e-15 1.0
  outer loop
    vertex 25.99999999999865 48.5000349110865 127.9289321881354
    vertex 14.317676206832315 44.778552781965494 127.92893218813543
    vertex 15.999999999998701 45.00003491108655 127.92893218813543
  endloop
endfacet
facet normal -3.9479530755670774e-15 3.9479530755670774e-15 1.0
  outer loop
    vertex 25.99999999999865 48.5000349110865 127.9289321881354
    vertex 15.999999999998701 45.00003491108655 127.92893218813543
    vertex 17.682323793165082 44.7785527819655 127.92893218813543
  endloop
endfacet
facet normal -3.9479530755670774e-15 3.9479530755670774e-15 1.0
  outer loop
    vertex 25.99999999999865 48.5000349110865 127.9289321881354
    vertex 17.682323793165082 44.7785527819655 127.92893218813543
    vertex 19.249999999998696 44.12920003568541 127.92893218813546
  endloop
endfacet
facet normal -3.9479530755670774e-15 3.9479530755670774e-15 1.0
  outer loop
    vertex 25.99999999999865 48.5000349110865 127.9289321881354
    vertex 19.249999999998696 44.12920003568541 127.92893218813546
    vertex 20.59619407771126 43.09622898879911 127.92893218813546
  endloop
endfacet
facet normal -3.9479530755670774e-15 3.9479530755670774e-15 1.0
  outer loop
    vertex 25.99999999999865 48.5000349110865 127.9289321881354
    vertex 20.59619407771126 43.09622898879911 127.92893218813546
    vertex 21.629165124597552 41.75003491108656 127.92893218813546
  endloop
endfacet
facet normal -3.9479530755670774e-15 3.9479530755670774e-15 1.0
  outer loop
    vertex 25.99999999999865 48.5000349110865 127.9289321881354
    vertex 21.629165124597552 41.75003491108656 127.92893218813546
    vertex 22.278517870877646 40.18235870425295 127.92893218813548
  endloop
endfacet
facet normal -3.9479530755670774e-15 3.9479530755670774e-15 1.0
  outer loop
    vertex 25.99999999999865 48.5000349110865 127.9289321881354
    vertex 22.278517870877646 40.18235870425295 127.92893218813548
    vertex 22.4999999999987 38.50003491108656 127.92893218813548
  endloop
endfacet
facet normal -3.9479530755670774e-15 3.9479530755670774e-15 1.0
  outer loop
    vertex 25.99999999999865 48.5000349110865 127.9289321881354
    vertex 22.4999999999987 38.50003491108656 127.92893218813548
    vertex 25.99999999999865 28.50003491108661 127.92893218813556
  endloop
endfacet
endsolid completo_g27_small_potentiometer
